<svg xmlns="http://www.w3.org/2000/svg" width="308.055" height="47.452" viewBox="0 0 308.055 47.452">
  <g id="Grupo_4" data-name="Grupo 4" transform="translate(-458 -499.642)">
    <g id="Grupo_1" data-name="Grupo 1" transform="translate(458 499.921)">
      <path id="Caminho_1" data-name="Caminho 1" d="M490.117,546.254a21.491,21.491,0,0,1-6.669-3.335,36.557,36.557,0,0,1-5.148-4.452,8.511,8.511,0,0,0-3.27-2.509l-.777-.162a2.949,2.949,0,0,1-.583,2.121,3.974,3.974,0,0,1-2.25.761,28.96,28.96,0,0,1-3.351.194l-1.23.033q0,2.946-1.344,3.577t-6.459.7l-1.036.032V504.78q.55,0,1.2-.032h2.525q.938,0,2.623.129a6.744,6.744,0,0,1,2.169.389,1.6,1.6,0,0,1,.647,1.23l.065.647a3.271,3.271,0,0,0,.032.518q.647,0,2.59.243a26.649,26.649,0,0,1,3.205.566,1.622,1.622,0,0,1,1.262,1.781v.486l-.065,1.1a.607.607,0,0,1-.065.323,14.142,14.142,0,0,0,3.626-1.279,8.525,8.525,0,0,0,2.655-2.185,26.709,26.709,0,0,1,3.092-3.108,12.9,12.9,0,0,1,4.355-2.558,22.361,22.361,0,0,1,4.436-1.068l2.428-.324,2.2-.389a16.882,16.882,0,0,0,2.946-.7,9.361,9.361,0,0,1,3.044-.437,8.128,8.128,0,0,1,5.553,1.83,6.309,6.309,0,0,1,2.088,5,5.8,5.8,0,0,1-.307,1.878,7.7,7.7,0,0,1-1.149,2.04l1.49-.032h7.123a81.974,81.974,0,0,1,8.628.5,7.71,7.71,0,0,1,5.358,2.623,8.611,8.611,0,0,1,1.748,5.553,6.6,6.6,0,0,1-1.6,4.452,8.1,8.1,0,0,1-3.853,2.541,38.57,38.57,0,0,1-8.014.971l-4.694.194q-1.814.1-2.1.146a1,1,0,0,0-.323.081,3.613,3.613,0,0,1,.1.874,5.508,5.508,0,0,1-1.279,3.577,6.538,6.538,0,0,1-2.509,2.056l.194.68a5.4,5.4,0,0,1,.129,1.327,4.174,4.174,0,0,1-.761,2.59,13.2,13.2,0,0,1-1.764,1.894,5.889,5.889,0,0,1-3.141,1.182l-.486,1.392a4.015,4.015,0,0,1-.923,1.6,7.218,7.218,0,0,1-1.246,1.068,7.777,7.777,0,0,1-1.684.777,9.951,9.951,0,0,1-3.108.372A22.7,22.7,0,0,1,490.117,546.254Z" transform="translate(-458 -500.117)" fill="#251a33"/>
      <path id="Caminho_2" data-name="Caminho 2" d="M472.043,531.563q0,5.731.065,8.613l.032,3.27a12.076,12.076,0,0,0,3.5-.275,1.024,1.024,0,0,0,.582-1.02l-.1-3.529-.065-3.4q0-1.876-.032-3.788,0-4.144.21-7.527t.211-3.254q0-.809-.356-1.036a5.931,5.931,0,0,0-2.072-.323l-1.651-.065q-.065.357-.195,2.785t-.129,7.317Z" transform="translate(-463.787 -507.992)" fill="#fff"/>
      <path id="Caminho_3" data-name="Caminho 3" d="M506.639,546.327l.55.032a7.1,7.1,0,0,0,2.7-.534q1.311-.533,1.311-1.376,0-.647-.858-1.052t-.858-1.085a.538.538,0,0,1,.113-.34.443.443,0,0,1,.373-.145,3.573,3.573,0,0,1,1.1.178,4.083,4.083,0,0,0,1.263.179,5.156,5.156,0,0,0,2.687-.777,2.366,2.366,0,0,0,1.3-2.1,1.652,1.652,0,0,0-1.247-1.6q-1.247-.469-1.246-1.311,0-.778,1.2-.777a5.975,5.975,0,0,0,3.658-1.036,3.357,3.357,0,0,0,1.392-2.849,3.814,3.814,0,0,0-.5-1.83A2.905,2.905,0,0,0,517.6,528.6q-1.473-.372-1.473-1.15,0-.583,1.247-.874a22.149,22.149,0,0,1,3.577-.42l1.619-.065q1.585-.1,3.367-.162l6.994-.259,2.72-.1a5.6,5.6,0,0,0,3.464-1.085,2.9,2.9,0,0,0,1.068-2.218,2.942,2.942,0,0,0-1.343-2.784q-1.345-.778-5.941-.907l-20.3-.42-2.4-.1a23.247,23.247,0,0,1-4.193-.534q-1.668-.4-1.667-1.02,0-.906,1.506-.906t3.853-.227a12.868,12.868,0,0,0,4.015-.971,8.363,8.363,0,0,0,2.315-1.376,2.534,2.534,0,0,0,.648-1.894,3.251,3.251,0,0,0-.81-2.218,2.741,2.741,0,0,0-2.169-.923,4.71,4.71,0,0,0-1.2.162q-.616.163-1.23.356l-1.23.356a36.741,36.741,0,0,1-6.055.761,11.642,11.642,0,0,0-8.223,4.4,26.044,26.044,0,0,1-5.488,5.293,8.4,8.4,0,0,1-4.419,1.263,5.285,5.285,0,0,1-1.036-.1q0,1.328-.081,2.8t-.081,3.189q0,1.942.032,3.868t.1,3.513a7.565,7.565,0,0,1,5.2,2.784,30.788,30.788,0,0,0,4.031,4.306,22.167,22.167,0,0,0,5.456,3.48A22.659,22.659,0,0,0,506.639,546.327Z" transform="translate(-468.985 -503.363)" fill="#ffc83d"/>
    </g>
    <g id="Grupo_3" data-name="Grupo 3" transform="translate(545.713 499.642)">
      <g id="Grupo_2" data-name="Grupo 2" transform="translate(0 0)">
        <path id="Caminho_4" data-name="Caminho 4" d="M639.612,503.881h-7.67a.572.572,0,0,0-.572.572v26.611c0,4.733-2.8,7.446-7.679,7.446s-7.679-2.714-7.679-7.446V504.453a.572.572,0,0,0-.572-.572h-7.67a.572.572,0,0,0-.572.572v26.263c0,9.891,6.165,15.8,16.493,15.8s16.493-5.9,16.493-15.8V504.453A.572.572,0,0,0,639.612,503.881Z" transform="translate(-607.199 -501.389)" fill="#251a33"/>
        <path id="Caminho_5" data-name="Caminho 5" d="M691.4,523.252c-5.751,0-8.284,2.823-9.364,4.868v-3.831a.572.572,0,0,0-.572-.572h-7.2a.572.572,0,0,0-.572.572v28.82a.572.572,0,0,0,.572.573h7.321a.572.572,0,0,0,.572-.573V538.234c0-3.4,1.151-7.447,6.633-7.447,3.827,0,5.935,2.067,5.935,5.82v16.5a.572.572,0,0,0,.572.573h7.321a.572.572,0,0,0,.573-.573v-17.2C703.189,528.457,698.342,523.252,691.4,523.252Z" transform="translate(-634.601 -509.372)" fill="#251a33"/>
        <rect id="Retângulo_1" data-name="Retângulo 1" width="8.465" height="29.964" rx="0.973" transform="translate(74.46 14.345)" fill="#251a33"/>
        <ellipse id="Elipse_1" data-name="Elipse 1" cx="5.743" cy="5.569" rx="5.743" ry="5.569" transform="translate(72.95)" fill="#251a33"/>
        <path id="Caminho_6" data-name="Caminho 6" d="M771.551,530.311c5.193,0,6.373,4.129,6.639,5.9a.573.573,0,0,0,.709.469l7.205-1.859a.572.572,0,0,0,.414-.682c-1.655-7.19-7.293-11.484-15.084-11.484-8.872,0-15.563,6.791-15.563,15.8s6.691,15.8,15.563,15.8c7.918,0,13.557-4.3,15.086-11.493a.572.572,0,0,0-.421-.674l-7.2-1.8a.572.572,0,0,0-.7.443c-.8,4.007-2.913,5.873-6.644,5.873-4.382,0-7.214-3.2-7.214-8.144C764.337,533.66,767.3,530.311,771.551,530.311Z" transform="translate(-668.468 -509.128)" fill="#251a33"/>
        <path id="Caminho_7" data-name="Caminho 7" d="M827.962,522.659c-9.085,0-15.68,6.643-15.68,15.8s6.594,15.8,15.68,15.8,15.679-6.643,15.679-15.8S837.047,522.659,827.962,522.659Zm0,23.939c-4.315,0-7.214-3.272-7.214-8.144s2.9-8.143,7.214-8.143,7.214,3.273,7.214,8.143S832.276,546.6,827.962,546.6Z" transform="translate(-691.715 -509.128)" fill="#251a33"/>
        <path id="Caminho_8" data-name="Caminho 8" d="M901.293,503.881h-7.322a.572.572,0,0,0-.572.572v15.066c-2.134-3.094-5.185-4.6-9.306-4.6-7.749,0-13.82,6.938-13.82,15.8s6.071,15.8,13.82,15.8c4.2,0,7.283-1.561,9.422-4.77v3.385a.572.572,0,0,0,.572.573h7.205a.572.572,0,0,0,.572-.573V504.453A.572.572,0,0,0,901.293,503.881ZM893.4,530.716c0,4.947-2.877,8.144-7.33,8.144s-7.33-3.2-7.33-8.144,2.878-8.143,7.33-8.143S893.4,525.769,893.4,530.716Z" transform="translate(-715.614 -501.389)" fill="#251a33"/>
        <path id="Caminho_9" data-name="Caminho 9" d="M946.665,522.659c-8.715,0-15.04,6.546-15.04,15.563,0,9.287,6.471,16.028,15.389,16.028,7.753,0,11.315-3.927,13.552-7.348a.572.572,0,0,0-.191-.808l-5.985-3.486a.569.569,0,0,0-.454-.053.575.575,0,0,0-.348.3,7,7,0,0,1-6.69,3.978,6.387,6.387,0,0,1-6.565-5.654h20.336a.572.572,0,0,0,.572-.572v-2.847C961.24,528.727,955.383,522.659,946.665,522.659Zm-.058,7.42a5.7,5.7,0,0,1,5.941,4.841h-12.1A5.787,5.787,0,0,1,946.607,530.079Z" transform="translate(-740.898 -509.128)" fill="#251a33"/>
      </g>
    </g>
  </g>
</svg>
